Coordinates
version=1
nRows=8
nColumns=46
inDegrees=yes

Units are S.I. units (second, meters, Newtons, ...)
Angles are in degrees.

endheader
time	pelvis_tilt	pelvis_list	pelvis_rotation	pelvis_tx	pelvis_ty	pelvis_tz	bb_angle	bb_tx	bb_ty	bb_tz	hip_flexion_r	hip_adduction_r	hip_rotation_r	knee_angle_r	knee_angle_r_beta	ankle_angle_r	subtalar_angle_r	mtp_angle_r	crank_angle_r	hip_flexion_l	hip_adduction_l	hip_rotation_l	knee_angle_l	knee_angle_l_beta	ankle_angle_l	subtalar_angle_l	mtp_angle_l	crank_angle_l	lumbar_extension	lumbar_bending	lumbar_rotation	arm_flex_r	arm_add_r	arm_rot_r	elbow_flex_r	pro_sup_r	wrist_flex_r	wrist_dev_r	arm_flex_l	arm_add_l	arm_rot_l	elbow_flex_l	pro_sup_l	wrist_flex_l	wrist_dev_l
      2.50000000	    -26.93328883	     11.11546826	     -2.90551040	      0.31019207	      1.14926264	     -0.30249643	      0.00000000	      0.50000000	      0.00000000	      0.25000000	     32.45341448	    -14.89795791	      1.54858518	     29.07190274	      0.50740042	    -19.45849483	     -8.46615198	      0.00000000	      0.00000000	     82.67008550	      3.73953293	     -4.27886923	    104.22490893	      1.81906782	      2.56013298	    -16.26520690	      0.00000000	      0.00000000	    -58.19391223	     -7.37539678	     -7.29949919	     43.15635906	    -34.00567731	     13.78050528	     98.38765155	     50.37194627	      0.00000000	      0.00000000	     40.61066408	    -38.04932571	     18.90901511	    101.80112020	     52.35383204	      0.00000000	      0.00000000
      2.50500000	    -27.26106455	     11.11599586	     -2.64163937	      0.31002638	      1.15212696	     -0.30308369	      0.00000000	      0.50000000	      0.00000000	      0.25000000	     33.07781433	    -14.92473537	      1.95656263	     30.29367156	      0.52872431	    -19.98983668	     -9.32022412	      0.00000000	      0.00000000	     82.11416651	      3.99093062	     -4.34610581	    102.40092270	      1.78723326	      3.73501014	    -16.48201322	      0.00000000	      0.00000000	    -58.52799677	     -7.40265499	     -7.61893221	     43.17458992	    -33.96907418	     13.26824521	     98.40938267	     50.34048045	      0.00000000	      0.00000000	     41.14899469	    -38.16664542	     19.01699499	    102.29027716	     52.43486137	      0.00000000	      0.00000000
      2.51000000	    -27.51843309	     11.00483604	     -2.47857373	      0.31016944	      1.15484781	     -0.30336086	      0.00000000	      0.50000000	      0.00000000	      0.25000000	     33.66009002	    -14.77491487	      2.44868729	     31.58333396	      0.55123317	    -20.51653341	    -10.18285555	      0.00000000	      0.00000000	     81.35431389	      4.10587772	     -4.35428490	    100.48825404	      1.75385089	      4.98384597	    -16.85024166	      0.00000000	      0.00000000	    -58.93254683	     -7.44447566	     -7.73485050	     43.11121442	    -33.81721654	     12.64115752	     98.49600161	     50.31392193	      0.00000000	      0.00000000	     41.65220374	    -38.42170640	     19.20134720	    102.81589001	     52.52923243	      0.00000000	      0.00000000
      2.51500000	    -27.77453123	     10.85154732	     -2.33987677	      0.31037079	      1.15729817	     -0.30352073	      0.00000000	      0.50000000	      0.00000000	      0.25000000	     34.31130345	    -14.54789127	      3.02271454	     32.99195340	      0.57581821	    -21.00600707	    -11.07077087	      0.00000000	      0.00000000	     80.52935226	      4.12618605	     -4.36229487	     98.50970209	      1.71931865	      6.17099901	    -17.30632471	      0.00000000	      0.00000000	    -59.23009045	     -7.46254101	     -7.81941352	     43.01618726	    -33.60943925	     11.89754795	     98.55952957	     50.25362944	      0.00000000	      0.00000000	     42.08485838	    -38.48143998	     19.20946094	    103.27507851	     52.56289721	      0.00000000	      0.00000000
      2.52000000	    -27.95073325	     10.65516006	     -2.23880591	      0.31078030	      1.15964269	     -0.30349090	      0.00000000	      0.50000000	      0.00000000	      0.25000000	     34.92054187	    -14.26343478	      3.62046709	     34.50678986	      0.60225710	    -21.35029513	    -11.75964321	      0.00000000	      0.00000000	     79.53447980	      4.09252267	     -4.37198558	     96.44784949	      1.68333253	      7.33736454	    -17.70713996	      0.00000000	      0.00000000	    -59.67503702	     -7.50652370	     -7.80304861	     42.64814055	    -33.47758560	     10.88547252	     99.03375858	     50.05364323	      0.00000000	      0.00000000	     42.60626924	    -38.96940474	     19.81094729	    104.08719102	     52.38805822	      0.00000000	      0.00000000
      2.52500000	    -28.05736272	     10.47481900	     -2.11471549	      0.31138670	      1.16178039	     -0.30361544	      0.00000000	      0.50000000	      0.00000000	      0.25000000	     35.50304967	    -14.03477517	      4.21781196	     36.17201836	      0.63132082	    -21.55981666	    -12.37760444	      0.00000000	      0.00000000	     78.43506072	      4.10490054	     -4.41362789	     94.30208847	      1.64588194	      8.39731278	    -18.17323199	      0.00000000	      0.00000000	    -60.10372717	     -7.50546985	     -7.84689142	     42.39893602	    -33.43101598	     10.17064815	     99.21117585	     49.83569023	      0.00000000	      0.00000000	     43.02565630	    -38.93034451	     19.91437706	    104.50686925	     52.11911287	      0.00000000	      0.00000000
      2.53000000	    -28.33003223	     10.26874851	     -1.88428667	      0.31177282	      1.16308658	     -0.30441280	      0.00000000	      0.50000000	      0.00000000	      0.25000000	     36.39715192	    -13.90532036	      4.63047378	     38.13910864	      0.66565302	    -21.40355712	    -12.76310697	      0.00000000	      0.00000000	     77.55001518	      4.27314779	     -4.35828999	     92.15944690	      1.60848579	      9.40257630	    -18.54096863	      0.00000000	      0.00000000	    -60.24621392	     -7.32460116	     -7.80967836	     42.42946291	    -33.51634425	      9.87837867	     99.24054304	     49.80905334	      0.00000000	      0.00000000	     43.26488291	    -38.86992910	     19.94691094	    104.80287079	     52.14172184	      0.00000000	      0.00000000
      2.53500000	    -28.34901731	     10.20240807	     -1.83232622	      0.31267981	      1.16484112	     -0.30438915	      0.00000000	      0.50000000	      0.00000000	      0.25000000	     37.02257842	    -13.77360543	      5.27927678	     40.03772701	      0.69879016	    -21.18711917	    -12.99176152	      0.00000000	      0.00000000	     76.26145795	      4.21115684	     -4.59853763	     89.85228826	      1.56821827	     10.17180947	    -19.00202269	      0.00000000	      0.00000000	    -60.69446075	     -7.45895305	     -7.91997558	     42.16093043	    -33.50255129	      9.32869958	     99.39573640	     49.79217872	      0.00000000	      0.00000000	     43.60888523	    -38.98979077	     20.07007760	    105.34357339	     52.20796941	      0.00000000	      0.00000000
